<svg width="45" height="60" viewBox="0 0 45 60" fill="none" xmlns="http://www.w3.org/2000/svg">
<path d="M7.65964 18.8463V29.6626C7.65964 30.4539 7.01974 31.1007 6.22846 31.1007H6.02204C5.23077 31.1007 4.58398 30.4546 4.58398 29.6626V18.8463C4.58398 18.0412 5.217 17.4082 6.02204 17.4082H6.22846C7.0335 17.4082 7.65964 18.0412 7.65964 18.8463Z" fill="#39E991"/>
<path d="M13.5152 18.3096V35.126C13.5152 35.9035 12.8547 36.5571 12.0772 36.5571H11.8501C11.0588 36.5571 10.4189 35.9165 10.4189 35.126V18.3096C10.4189 17.5046 11.0451 16.8716 11.8501 16.8716H12.0772C12.8685 16.8716 13.5152 17.5184 13.5152 18.3096Z" fill="#39E991"/>
<path d="M19.3434 17.7725V39.2058C19.3434 39.997 18.6966 40.6369 17.9122 40.6369H17.6851C16.8939 40.6369 16.2471 39.997 16.2471 39.2058V17.7725C16.2471 16.9813 16.8939 16.3345 17.6851 16.3345H17.9122C18.6966 16.3345 19.3434 16.9813 19.3434 17.7725Z" fill="#39E991"/>
<path d="M44.3128 43.3412V43.9818C44.3128 45.9428 42.7172 47.5323 40.7556 47.5323C31.9414 47.5323 29.9185 47.5322 29.3474 47.6072V47.5866C24.3245 48.4673 20.5608 52.7615 20.1556 58.0521C20.0661 58.2317 20.0592 58.4443 20.1418 58.6307C20.1418 58.6376 20.1418 58.6376 20.1418 58.6445V58.8509C19.6533 59.2645 16.7359 60 11.6648 60C6.64195 60 3.73143 59.2775 3.2085 58.8654C3.19474 58.0122 3.07777 56.2507 2.81631 55.4319C2.72686 55.1773 2.63053 54.9572 2.5342 54.737C2.26586 54.0964 1.8943 53.4634 1.44706 52.9067C1.41953 52.8723 1.39201 52.8448 1.36449 52.8173C1.33697 52.7898 1.31633 52.7622 1.29568 52.7416C0.999815 52.4044 0.73147 52.1292 0.490647 51.909C0.153495 51.2416 0.174137 50.7256 0.20854 49.5428C0.222301 49.1162 0.236062 48.6276 0.236062 48.0359V28.9125C0.236062 26.4768 1.10991 24.5158 2.67181 23.3736V29.635C2.67181 31.4859 4.1718 32.9859 6.01581 32.9859H6.24287C7.11672 32.9859 7.90799 32.6487 8.50661 32.1051V35.0989C8.50661 36.9429 10.0066 38.4422 11.8506 38.4422H12.0777C12.9515 38.4422 13.7565 38.1058 14.3552 37.5409V39.1784C14.3552 41.0225 15.8551 42.5224 17.6992 42.5224H17.9262C19.7702 42.5224 21.2702 41.0218 21.2702 39.1784V21.6878H21.2427C21.3253 20.9172 21.3184 18.736 21.3046 11.7866C21.2909 6.86001 21.2702 1.94722 21.2702 1.94722C21.2702 0.873843 22.1441 0 23.2243 0H23.7404C24.8413 0 25.7076 0.860081 25.7076 1.94722C25.6456 35.1877 25.7007 35.4767 25.722 35.573C26.0936 37.3138 27.3114 38.7663 28.9903 39.4743C29.2793 39.5775 29.5958 39.7014 29.9398 39.7564C29.9743 39.764 30.0087 39.764 30.0431 39.764L40.7556 39.7839C42.7165 39.7839 44.3128 41.3803 44.3128 43.3412Z" fill="#39E991"/>
</svg>
