<svg width="181" height="14" viewBox="0 0 181 14" fill="none" xmlns="http://www.w3.org/2000/svg">
<path d="M2.91576 10.7725H18.0058V13.3793H0.308594V0.713269H2.91543L2.91576 10.7725ZM39.4361 3.36874L24.3461 3.36876V5.79638L34.4107 5.83385L34.4011 8.4408L24.346 8.40332V10.8219H39.4361V13.4288H21.7388V0.762702H39.4361L39.4361 3.36874ZM60.6321 10.7725L60.6707 13.3535L59.3803 13.3728C59.1799 13.3759 58.9532 13.3793 58.7059 13.3793C56.9192 13.3793 54.0536 13.2019 52.241 11.4162C51.3801 10.5681 50.8595 9.47393 50.685 8.15569C49.7363 8.2938 48.6927 8.36887 47.5508 8.36887H45.7287V13.3491H43.1475V0.807418H45.7287V5.7878H47.5508C52.8342 5.7878 55.5986 3.98321 55.5986 2.20039V0.909795H58.1798V2.20028C58.1798 4.3221 56.61 6.4568 53.2175 7.57362C53.2865 8.43467 53.5611 9.0935 54.0526 9.57774C55.3464 10.8522 58.0448 10.8118 59.3417 10.7924L60.6321 10.7725ZM67.4964 3.42803C67.2542 3.56193 67.0066 3.78675 67.0066 4.4381C67.0066 4.94581 67.1707 5.22333 67.5921 5.42753C68.0183 5.63404 68.4937 5.64913 68.5177 5.64972L77.993 5.68676C79.6394 5.68676 82.0965 6.70365 82.0965 9.50513C82.0965 12.3066 79.8131 13.3235 78.2781 13.3235H64.3995V10.7167H78.2659C78.3796 10.7127 78.7191 10.6699 78.999 10.5151C79.2413 10.3811 79.489 10.1563 79.489 9.50506C79.489 8.99735 79.3249 8.71983 78.9034 8.51563C78.4785 8.30968 78.0036 8.29414 77.977 8.29342L68.5079 8.2513V8.25638C66.8563 8.25638 64.3991 7.23949 64.3991 4.43801C64.3991 1.63653 66.6825 0.619641 68.2175 0.619641H82.0961V3.22648H68.2297C68.1161 3.2304 67.7764 3.27323 67.4964 3.42803ZM88.3891 13.4437H85.8079V0.901933H88.3891V13.4437ZM109.6 10.7725L109.638 13.3535L108.348 13.3728C108.148 13.3759 107.921 13.3793 107.674 13.3793C105.887 13.3793 103.021 13.2019 101.209 11.4162C100.348 10.5681 99.8272 9.47393 99.6526 8.15569C98.704 8.2938 97.6604 8.36887 96.5185 8.36887H94.6963V13.3491H92.1151V0.807418H94.6963V5.7878H96.5185C101.802 5.7878 104.566 3.98321 104.566 2.20039V0.909795H107.147V2.20028C107.147 4.3221 105.578 6.4568 102.185 7.57362C102.254 8.43467 102.529 9.0935 103.02 9.57774C104.314 10.8522 107.012 10.8118 108.309 10.7924L109.6 10.7725ZM122.435 0.104004L132.625 13.6395H129.348L126.499 9.86711H118.371L115.563 13.6395H112.324L122.435 0.104004ZM120.326 7.25994H124.544L122.435 4.44825L120.326 7.25994ZM137.915 12.9624L135.309 12.9624V10.3252H137.915L137.915 12.9624ZM159.335 0.632545L159.381 6.9617C159.4 8.36211 158.835 9.72165 157.79 10.7903C156.681 11.9232 154.524 13.2797 150.542 13.3091C150.504 13.3093 150.465 13.3095 150.427 13.3095C147.412 13.3095 144.895 12.4437 143.328 10.8656C142.251 9.78069 141.668 8.39852 141.685 6.97212L141.638 0.652077L144.245 0.632753L144.292 6.98034L144.291 6.99457C144.281 7.72999 144.588 8.43328 145.179 9.02878C146.267 10.1251 148.164 10.7182 150.524 10.7021C152.93 10.6844 154.849 10.0683 155.927 8.96704C156.492 8.3892 156.785 7.70721 156.775 6.99445V6.98515L156.728 0.652L159.335 0.632545ZM180.809 0.636986V3.29556L168.18 10.6967H180.809V13.3035H163.112V10.6449L175.742 3.2436H163.112V0.636875L180.809 0.636986Z" fill="white"/>
</svg>