<svg width="22" height="18" viewBox="0 0 22 18" fill="none" xmlns="http://www.w3.org/2000/svg">
<path d="M13 11.8135V6.18646C13 3.04126 13 1.46866 12.0747 1.0773C11.1494 0.685932 10.0603 1.79793 7.88232 4.02192C6.75439 5.17365 6.11085 5.42869 4.50604 5.42869C3.10257 5.42869 2.40084 5.42869 1.89675 5.77262C0.850349 6.48655 1.00852 7.88199 1.00852 9C1.00852 10.118 0.850349 11.5134 1.89675 12.2274C2.40084 12.5713 3.10257 12.5713 4.50604 12.5713C6.11085 12.5713 6.75439 12.8264 7.88232 13.9781C10.0603 16.2021 11.1494 17.3141 12.0747 16.9227C13 16.5313 13 14.9587 13 11.8135Z" stroke="black" stroke-width="1.5" stroke-linecap="round" stroke-linejoin="round"/>
<path d="M16 6C16.6254 6.81968 17 7.86344 17 9C17 10.1366 16.6254 11.1803 16 12" stroke="black" stroke-width="1.5" stroke-linecap="round" stroke-linejoin="round"/>
<path d="M19 4C20.2508 5.36613 21 7.10574 21 9C21 10.8943 20.2508 12.6339 19 14" stroke="black" stroke-width="1.5" stroke-linecap="round" stroke-linejoin="round"/>
</svg>
